Coordinates
version=1
nRows=13
nColumns=40
inDegrees=yes

Units are S.I. units (second, meters, Newtons, ...)
If the header above contains a line with 'inDegrees', this indicates whether rotational values are in degrees (yes) or radians (no).

endheader
time	pelvis_tilt	pelvis_list	pelvis_rotation	pelvis_tx	pelvis_ty	pelvis_tz	hip_flexion_r	hip_adduction_r	hip_rotation_r	knee_angle_r	knee_angle_r_beta	ankle_angle_r	subtalar_angle_r	mtp_angle_r	hip_flexion_l	hip_adduction_l	hip_rotation_l	knee_angle_l	knee_angle_l_beta	ankle_angle_l	subtalar_angle_l	mtp_angle_l	lumbar_extension	lumbar_bending	lumbar_rotation	arm_flex_r	arm_add_r	arm_rot_r	elbow_flex_r	pro_sup_r	wrist_flex_r	wrist_dev_r	arm_flex_l	arm_add_l	arm_rot_l	elbow_flex_l	pro_sup_l	wrist_flex_l	wrist_dev_l
      7.77500000	     -9.64800109	     -3.71991091	      0.55817454	     -0.23884497	      1.15855413	     -0.01755000	     52.71142076	     -6.33020094	     -4.72847649	     91.25422788	      1.59268673	     14.25299066	      0.82990517	      0.00000000	     70.17768170	    -11.11731186	      3.36220407	     75.18089328	      1.31215412	      5.51135934	     -1.60464303	      0.00000000	    -61.59774320	      4.10412708	      5.19211623	     87.08106757	    -16.06836463	     57.21348092	     31.89532100	     69.92599557	      0.00000000	      0.00000000	     81.24427836	    -12.18093566	     33.08337368	     36.44223814	     63.58407579	      0.00000000	      0.00000000
      7.78333333	     -9.64589171	     -3.67597566	      0.43552186	     -0.23900191	      1.15848902	     -0.01723218	     54.09132087	     -6.48911964	     -4.33155767	     93.58475912	      1.63336218	     14.84866438	      1.23982388	      0.00000000	     68.47650480	    -11.26345167	      2.88815805	     72.76192711	      1.26993520	      4.42466560	     -1.54855575	      0.00000000	    -61.56575104	      4.04930721	      5.18828618	     87.22170287	    -15.92188594	     57.57256384	     31.53072246	     70.00940043	      0.00000000	      0.00000000	     81.21986210	    -12.16050942	     32.94815994	     36.28916426	     63.60550730	      0.00000000	      0.00000000
      7.79166667	     -9.74543720	     -3.90049717	      0.38769008	     -0.23908451	      1.15831807	     -0.01664851	     55.55085495	     -6.54141914	     -4.25761045	     95.83887551	      1.67270393	     15.31958699	      1.75262478	      0.00000000	     66.94316716	    -11.47840005	      2.72875451	     70.23303899	      1.22579777	      3.35821998	     -1.50136293	      0.00000000	    -61.43205989	      4.18312518	      5.37823526	     87.27211653	    -15.81044348	     57.85607109	     31.27807857	     70.00334635	      0.00000000	      0.00000000	     81.14801787	    -12.16943830	     32.89403475	     36.21270781	     63.64926412	      0.00000000	      0.00000000
      7.80000000	     -9.72537701	     -4.53225239	      0.37296124	     -0.23889843	      1.15822862	     -0.01599104	     56.80600878	     -6.20701399	     -4.53758623	     97.90584537	      1.70877936	     15.74681978	      1.83519475	      0.00000000	     65.36875163	    -11.88182322	      2.99327478	     67.96049216	      1.18613435	      2.77772364	     -1.56004151	      0.00000000	    -61.45231158	      4.61105553	      5.94534605	     87.30491824	    -15.77421146	     57.86244057	     31.30326341	     69.91925921	      0.00000000	      0.00000000	     81.01385205	    -12.19272851	     32.76641561	     36.26436783	     63.58968832	      0.00000000	      0.00000000
      7.80833333	     -9.75483634	     -4.27978961	      0.25028411	     -0.23896730	      1.15834973	     -0.01618411	     58.33810635	     -6.57213894	     -3.94142267	    100.06024308	      1.74638069	     16.27790622	      2.40620694	      0.00000000	     63.48324242	    -11.76140571	      2.37760015	     65.51677182	      1.14348338	      1.61947007	     -2.15732749	      0.00000000	    -61.39811830	      4.47886857	      5.73757213	     87.62647776	    -15.56327723	     58.91957529	     30.66747771	     69.98266209	      0.00000000	      0.00000000	     81.00211270	    -12.17752963	     32.61597070	     36.04606536	     63.66697594	      0.00000000	      0.00000000
      7.81666667	     -9.83840842	     -4.52954741	      0.22344545	     -0.23873470	      1.15816967	     -0.01581677	     59.77848313	     -6.62991574	     -3.95829625	    101.99995130	      1.78023499	     16.79147698	      2.72773862	      0.00000000	     61.90616302	    -11.92750665	      2.32590092	     63.33188090	      1.10534984	      0.74790753	     -2.23490925	      0.00000000	    -61.27750350	      4.66712611	      5.96281559	     87.66008070	    -15.50874936	     59.24993941	     30.59967409	     69.83840086	      0.00000000	      0.00000000	     80.89354044	    -12.11924821	     32.44520422	     35.94888873	     63.66127772	      0.00000000	      0.00000000
      7.82500000	     -9.82401473	     -4.56600118	      0.09038374	     -0.23848709	      1.15813573	     -0.01581907	     61.21392615	     -6.92267852	     -3.77315280	    103.90813823	      1.81353913	     17.28307547	      3.37597544	      0.00000000	     60.07594455	    -11.95679906	      2.10685663	     61.12033814	      1.06675114	      0.11903167	     -2.54228955	      0.00000000	    -61.27052145	      4.71028205	      6.01886912	     87.84217474	    -15.37442502	     59.87202140	     30.29841619	     69.63084196	      0.00000000	      0.00000000	     80.81149467	    -12.18232623	     32.32166977	     35.84504097	     63.74411603	      0.00000000	      0.00000000
      7.83333333	     -9.90878708	     -5.12295325	      0.02158592	     -0.23819928	      1.15796327	     -0.01521704	     62.62989103	     -6.71251843	     -4.12999301	    105.56848733	      1.84251769	     16.99802793	      3.61822969	      0.00000000	     58.59929447	    -12.32357972	      2.52992656	     59.17208053	      1.03274763	     -0.36576783	     -2.50158433	      0.00000000	    -61.19075432	      5.05638990	      6.54609213	     87.83434893	    -15.36263047	     59.88096253	     30.39193325	     69.52513001	      0.00000000	      0.00000000	     80.67116603	    -12.17707896	     32.20398799	     35.85791908	     63.68393862	      0.00000000	      0.00000000
      7.84166667	    -10.02732970	     -4.99902758	     -0.18277836	     -0.23808319	      1.15775710	     -0.01519882	     64.37892677	     -6.98383590	     -3.71784478	    107.35304245	      1.87366405	     17.18177811	      4.11638727	      0.00000000	     56.95425949	    -12.30859825	      2.21807008	     57.20763765	      0.99846163	     -1.33840088	     -2.78106387	      0.00000000	    -61.02931483	      4.94086500	      6.48520536	     88.01316303	    -15.24837997	     60.75651635	     30.00333509	     69.40458867	      0.00000000	      0.00000000	     80.62666147	    -12.15514697	     32.06196804	     35.57218174	     63.79078192	      0.00000000	      0.00000000
      7.85000000	    -10.16253737	     -5.52060923	     -0.29943315	     -0.23771834	      1.15759509	     -0.01463238	     65.95044069	     -6.83322567	     -4.08092006	    108.90042149	      1.90067091	     18.60443419	      4.21593719	      0.00000000	     55.54365416	    -12.69524321	      2.61286886	     55.40570972	      0.96701206	     -1.75132855	     -2.74896671	      0.00000000	    -60.90012257	      5.23324097	      6.99902526	     87.94891971	    -15.27065795	     60.79365704	     30.07537040	     69.32526726	      0.00000000	      0.00000000	     80.44814223	    -12.13699585	     31.98774803	     35.53426279	     63.75096979	      0.00000000	      0.00000000
      7.85833333	    -10.35195662	     -5.94452179	     -0.52360836	     -0.23779887	      1.15749061	     -0.01405439	     67.59606077	     -6.73602742	     -4.39710255	    110.26132608	      1.92442318	     19.00006639	      4.64522395	      0.00000000	     54.24494430	    -13.12186344	      2.83906989	     53.76370342	      0.93835364	     -2.31907801	     -2.71860259	      0.00000000	    -60.76184037	      5.41121674	      7.47029524	     88.00703345	    -15.25113574	     60.98780044	     30.10185840	     69.31670690	      0.00000000	      0.00000000	     80.41877070	    -12.13604195	     31.87036125	     35.45949209	     63.72760684	      0.00000000	      0.00000000
      7.86666667	    -10.48420484	     -5.73337997	     -0.76942116	     -0.23761375	      1.15702941	     -0.01411111	     69.33784748	     -7.00478198	     -3.90717275	    111.72238943	      1.94992354	     19.29580981	      4.76702773	      0.00000000	     52.78271567	    -13.07638074	      2.48423640	     52.27911127	      0.91244262	     -3.16545223	     -3.00661756	      0.00000000	    -60.55581120	      5.22371054	      7.38549537	     88.17340885	    -15.14734583	     61.93885330	     29.65988202	     69.46778206	      0.00000000	      0.00000000	     80.33106977	    -12.07903277	     31.79360510	     34.99995114	     63.92133488	      0.00000000	      0.00000000
      7.87500000	    -10.52266412	     -6.12583025	     -0.87021469	     -0.23708922	      1.15669089	     -0.01397916	     70.74399557	     -7.04876290	     -4.26179979	    112.85672331	      1.96972140	     19.60738091	      4.80399246	      0.00000000	     51.53116129	    -13.41926502	      2.72353691	     51.15924312	      0.89289724	     -3.36539616	     -3.03674945	      0.00000000	    -60.49976434	      5.49943926	      7.76764557	     88.13813730	    -15.14200184	     61.98930539	     29.72587416	     69.43250220	      0.00000000	      0.00000000	     80.14349423	    -12.10732326	     31.71110417	     34.98295628	     63.90714778	      0.00000000	      0.00000000
